<svg xmlns="http://www.w3.org/2000/svg" height="1024" width="1024" viewBox="0 0 29 29"><path fill="#ffffff" d="M0,0 h29v29H0z" shapeRendering="crispEdges"></path><path fill="#000000" d="M0 0h7v1H0zM8 0h2v1H8zM11 0h4v1H11zM18 0h1v1H18zM22,0 h7v1H22zM0 1h1v1H0zM6 1h1v1H6zM8 1h1v1H8zM10 1h1v1H10zM13 1h4v1H13zM20 1h1v1H20zM22 1h1v1H22zM28,1 h1v1H28zM0 2h1v1H0zM2 2h3v1H2zM6 2h1v1H6zM8 2h2v1H8zM11 2h2v1H11zM14 2h2v1H14zM18 2h1v1H18zM22 2h1v1H22zM24 2h3v1H24zM28,2 h1v1H28zM0 3h1v1H0zM2 3h3v1H2zM6 3h1v1H6zM9 3h2v1H9zM15 3h1v1H15zM17 3h2v1H17zM20 3h1v1H20zM22 3h1v1H22zM24 3h3v1H24zM28,3 h1v1H28zM0 4h1v1H0zM2 4h3v1H2zM6 4h1v1H6zM10 4h2v1H10zM16 4h5v1H16zM22 4h1v1H22zM24 4h3v1H24zM28,4 h1v1H28zM0 5h1v1H0zM6 5h1v1H6zM8 5h1v1H8zM10 5h1v1H10zM12 5h1v1H12zM15 5h1v1H15zM17 5h1v1H17zM20 5h1v1H20zM22 5h1v1H22zM28,5 h1v1H28zM0 6h7v1H0zM8 6h1v1H8zM10 6h1v1H10zM12 6h1v1H12zM14 6h1v1H14zM16 6h1v1H16zM18 6h1v1H18zM20 6h1v1H20zM22,6 h7v1H22zM8 7h2v1H8zM12 7h3v1H12zM16 7h3v1H16zM2 8h3v1H2zM6 8h1v1H6zM8 8h4v1H8zM14 8h1v1H14zM16 8h1v1H16zM19 8h5v1H19zM26,8 h3v1H26zM2 9h3v1H2zM8 9h1v1H8zM11 9h1v1H11zM13 9h1v1H13zM18 9h8v1H18zM28,9 h1v1H28zM0 10h3v1H0zM5 10h5v1H5zM11 10h1v1H11zM13 10h4v1H13zM21 10h3v1H21zM25 10h1v1H25zM0 11h1v1H0zM9 11h1v1H9zM15 11h2v1H15zM21 11h5v1H21zM27 11h1v1H27zM0 12h2v1H0zM3 12h2v1H3zM6 12h1v1H6zM8 12h1v1H8zM10 12h2v1H10zM15 12h2v1H15zM18 12h2v1H18zM21 12h1v1H21zM23 12h1v1H23zM25,12 h4v1H25zM0 13h5v1H0zM7 13h1v1H7zM9 13h1v1H9zM11 13h1v1H11zM13 13h2v1H13zM16 13h2v1H16zM19 13h4v1H19zM24 13h2v1H24zM27,13 h2v1H27zM0 14h7v1H0zM9 14h3v1H9zM14 14h1v1H14zM16 14h1v1H16zM18 14h1v1H18zM20 14h1v1H20zM22 14h2v1H22zM0 15h4v1H0zM7 15h3v1H7zM11 15h1v1H11zM13 15h1v1H13zM17 15h4v1H17zM24 15h2v1H24zM27,15 h2v1H27zM3 16h1v1H3zM6 16h2v1H6zM9 16h1v1H9zM11 16h1v1H11zM17 16h1v1H17zM20 16h1v1H20zM23 16h1v1H23zM25 16h2v1H25zM28,16 h1v1H28zM0 17h1v1H0zM4 17h2v1H4zM15 17h2v1H15zM18 17h1v1H18zM20 17h1v1H20zM23 17h3v1H23zM27,17 h2v1H27zM0 18h1v1H0zM2 18h1v1H2zM5 18h2v1H5zM8 18h2v1H8zM11 18h3v1H11zM15 18h1v1H15zM17 18h2v1H17zM20 18h1v1H20zM22 18h1v1H22zM25 18h2v1H25zM0 19h1v1H0zM3 19h3v1H3zM7 19h1v1H7zM9 19h6v1H9zM16 19h2v1H16zM22 19h3v1H22zM28,19 h1v1H28zM0 20h1v1H0zM2 20h2v1H2zM5 20h2v1H5zM8 20h1v1H8zM11 20h1v1H11zM13 20h1v1H13zM15 20h1v1H15zM20 20h5v1H20zM26 20h1v1H26zM8 21h5v1H8zM15 21h2v1H15zM20 21h1v1H20zM24 21h2v1H24zM27,21 h2v1H27zM0 22h7v1H0zM11 22h1v1H11zM13 22h3v1H13zM17 22h1v1H17zM19 22h2v1H19zM22 22h1v1H22zM24 22h1v1H24zM0 23h1v1H0zM6 23h1v1H6zM9 23h1v1H9zM12 23h1v1H12zM15 23h2v1H15zM18 23h3v1H18zM24 23h2v1H24zM27,23 h2v1H27zM0 24h1v1H0zM2 24h3v1H2zM6 24h1v1H6zM8 24h1v1H8zM10 24h1v1H10zM15 24h2v1H15zM18 24h1v1H18zM20 24h7v1H20zM28,24 h1v1H28zM0 25h1v1H0zM2 25h3v1H2zM6 25h1v1H6zM8 25h1v1H8zM10 25h3v1H10zM19 25h3v1H19zM23 25h1v1H23zM25 25h2v1H25zM0 26h1v1H0zM2 26h3v1H2zM6 26h1v1H6zM8 26h3v1H8zM12 26h1v1H12zM16 26h1v1H16zM18 26h10v1H18zM0 27h1v1H0zM6 27h1v1H6zM9 27h3v1H9zM13 27h3v1H13zM20 27h1v1H20zM24 27h2v1H24zM27 27h1v1H27zM0 28h7v1H0zM9 28h1v1H9zM11 28h3v1H11zM15 28h2v1H15zM18 28h2v1H18zM21 28h2v1H21zM24 28h1v1H24z" shapeRendering="crispEdges"></path></svg>